<svg xmlns="http://www.w3.org/2000/svg" viewBox="0 0 3391.44 1023.96"><defs><style>.cls-1{fill:#419699;}.cls-2{fill:#409699;}</style></defs><title>Asset 4</title><g id="Layer_2" data-name="Layer 2"><g id="Layer_1-2" data-name="Layer 1"><path class="cls-1" d="M471.72,520.47q0-96.48-.12-193c0-4.89,1.33-6,6.1-6q44,.34,88,0c4,0,5.36.85,5.35,5.16-.12,125.64,0,251.27-.19,376.91-.07,38.67-7.51,75.92-27.16,109.68-25,42.91-62.36,67.87-111.91,73.68-23.6,2.77-47.19,1.63-70.72-1.58-9.56-1.31-19.14-2.34-28.61-4.27-2.75-.56-3.45-1.61-3.12-4.37q5.46-46.1,10.62-92.23c.37-3.33,1.45-3.61,4.43-3,14.61,3.19,29.13,6.85,44.13,8,12.67,1,25.32,1.48,37.83-1,21.25-4.21,33.3-17.74,38.78-38.29,5.12-19.18,6.49-38.71,6.55-58.37C471.82,634.77,471.72,577.62,471.72,520.47Z"/><path class="cls-1" d="M112.2,267.14c-27.25,1.55-51.82-20.84-51.77-49.84.05-28.52,22.7-50.39,52.13-50.41,29.62,0,52.34,22,52.31,50.78C164.85,244,142.56,268.87,112.2,267.14Z"/><path class="cls-1" d="M247.79,267.14c-28.43,1.56-51.94-22.33-51.81-49.76.14-28.58,22.6-50.59,51.9-50.51,30.06.08,52,22,52.49,51.11C300.74,242.44,277.39,269.21,247.79,267.14Z"/><path class="cls-1" d="M972.93,267.14c-29.49,1.67-52.43-23.46-52-50,.43-28.4,22.48-50.25,51.6-50.28,30.11,0,52.25,21.76,52.75,50.85C1025.69,242.48,1002.34,269.08,972.93,267.14Z"/><path class="cls-1" d="M1108.13,267.14c-29.35,1.49-51.81-22.81-51.7-49.83.12-29,22.47-50.5,52.41-50.42,29.1.08,50.75,21.63,51.39,49.87C1160.83,243.7,1137.72,269,1108.13,267.14Z"/><path class="cls-1" d="M1799,267.14c-28.68,1.52-51.91-23.47-51.33-50.16.62-28.58,22.43-50.16,51.71-50.1,29.77.06,51.61,21.81,51.89,51C1851.5,243.13,1829.6,268.63,1799,267.14Z"/><path class="cls-1" d="M2279.14,354.09c-4,0-8,.36-12-.07-11.93-1.28-19.92-11.36-19.18-23.78A21.92,21.92,0,0,1,2269.51,310q9-.12,18,0a22.12,22.12,0,0,1,21.89,21.49c.37,12.55-8.27,22.09-20.75,22.8-3.15.18-6.32,0-9.48,0Z"/><path class="cls-1" d="M2234.84,624.14c-16.54,1.57-26.35-12.37-25.87-22.74a24.11,24.11,0,0,1,1.29-6.82c5.57-16.12,23.31-18.52,36.71-13.32,12.23,4.74,17.11,19.87,10.92,31.39C2253.54,620.74,2246.7,624.15,2234.84,624.14Z"/><path class="cls-2" d="M3388.24,455.47a496.92,496.92,0,0,0-28.32-120.62c-31.76-85.31-82.35-157.5-152.32-215.78Q3083.48,15.66,2922.28,1.87C2914.53,1.21,2906.76.62,2899,0h-39c-1.82,1.13-3.9.74-5.84.8-12.49.39-24.91,1.62-37.3,3.14a503.32,503.32,0,0,0-146.94,41q-101.46,45.82-174.83,129.57a500.79,500.79,0,0,0-83,129.95c-1.89,4.3-4.17,5.72-8.82,5.62-15.16-.32-30.33-.13-45.5-.1a25.48,25.48,0,0,0-5.46.42c-11.54,2.58-18.62,12.4-17.63,24.29.87,10.46,9.92,19.08,21.22,19.52,10,.38,20,0,30,.15,6.43.08,6.8-1.6,4.58,6.4-3.16,11.37-6.47,22.71-9.11,34.2-.92,4-2.41,5-6.23,4.93-26-.15-52,0-78-.12a21.44,21.44,0,0,0-15.09,5.46,22.71,22.71,0,0,0,15.56,39.54c23.33.06,46.67.12,70-.08,4.09,0,5,1.06,4.42,5-1.63,11.2-3.17,22.44-3.36,33.76-.09,5.31-2.29,6.27-7.17,6.26q-84.5-.26-169-.09c-14.73,0-24.77,12.46-21.79,26.8,2.33,11.21,10.9,17.93,23,17.93q84.5,0,169-.09c3.94,0,5.56.82,5.73,5a328.27,328.27,0,0,0,3.56,35.25c.57,3.82-.33,4.74-4.2,4.71-22.33-.19-44.67-.1-67-.09-14.1,0-24.34,9.46-24.24,22.33s10.41,22.64,24.09,22.65q37.5,0,75,0c2.64,0,4.67,0,5.37,3.49a329.94,329.94,0,0,0,9.8,36.58c1.34,4.19.95,5.57-4,5.56-57.16-.18-114.33-.12-171.5-.11-1.83,0-3.67,0-5.5.11A21.39,21.39,0,0,0,2191,684.55c-4.8,14.59,6.23,29.41,22,29.42q95,.06,190-.11c4.86,0,7.14,1.33,9.16,5.86q56.41,126.47,168.66,207.7,111,80.2,247.67,93.89a509,509,0,0,0,117.1-1.55c64.89-8.42,126.11-28.26,183.12-60.51q157.69-89.2,226.16-257C3387.07,623,3397.4,540.48,3388.24,455.47Zm-845.81-145a22.07,22.07,0,0,1,4.94-.46c9.16,0,18.31,0,27.47,0,9.32,0,18.65,0,28,0,12.34.07,22.61,9.77,23.05,21.68a21.45,21.45,0,0,1-21.17,22.56q-28.69.89-57.42.2c-12.32-.28-21.67-9.31-22.39-20.07C2524.1,322.72,2531.08,313.16,2542.43,310.48Zm59.85,179.15c12.63.12,22.5,9.47,22.85,21.56.37,12.78-8.46,22.72-21.61,23.16-15.28.51-30.6.53-45.89.14-12.45-.32-22.25-11.14-22-23.26.25-12.32,10.17-21.56,23.25-21.61,7.15,0,14.3,0,21.45,0C2587.65,489.61,2595,489.56,2602.28,489.62Zm637.95-174.54q-32.59,156-65,312.08c-5.69,27.35-11.49,54.68-16.91,82.09-.82,4.15-2.48,4.83-6.21,4.82q-153-.14-306-.07-152.24,0-304.49,0c-15.56,0-26-13-22.72-28.15A20.7,20.7,0,0,1,2536.27,670a61.82,61.82,0,0,1,8.48-.38q143.49,0,287,0c7.27,0,13.85-1.46,19.13-6.87,6-6.14,8-13.48,5.61-21.59-2.54-8.6-8.4-14.27-17.32-16.2a45,45,0,0,0-9.43-.8q-101-.06-202,0c-10.12,0-18.23-5.7-21.52-14.84a22.39,22.39,0,0,1,6.83-24.86,23.59,23.59,0,0,1,15.72-5.31q63.75.08,127.5,0c5.4,0,10.66-.34,15.36-3.37a21.72,21.72,0,0,0,9.56-23.36c-2.45-10-10-17.29-19.86-17.46-24.16-.42-48.32-.24-72.48-.38-11.87-.07-20.81-7.21-23-18.2-2.91-14.51,7-26.76,21.78-26.78q57-.07,114,0c6.6,0,13-.84,18.32-5.25a22,22,0,0,0,7.29-23.36,23.18,23.18,0,0,0-19.8-16c-2.49-.2-5-.17-7.49-.18q-87,0-174,0a22.91,22.91,0,0,1-16.08-39.29c4.31-4.16,9.52-5.74,15.47-5.73q51.5.11,103,0,56.25,0,112.5,0c7.24,0,13.89-1.5,19.1-7,6.18-6.51,8.06-14.11,5-22.56-3.18-8.87-9.49-14.28-19-15.54a42.08,42.08,0,0,0-5.49-.16q-75.5,0-151,0a37.34,37.34,0,0,1-10.39-1.1,22.15,22.15,0,0,1,6.06-43.52q275.74,0,551.48-.11C3241.3,309.9,3241,311.46,3240.23,315.08Z"/><path class="cls-1" d="M351.21,494.61A216.44,216.44,0,0,0,347,450.45c-8.57-41.5-28.68-75.76-64-100-29.75-20.39-63.24-29-99.08-28.78-32.8.18-63.67,7.92-91.6,25.42-47.85,30-75.24,74-87.36,128.43C2.56,486.27,1.81,497.21,0,508v30c1,6.88,1.85,13.78,3,20.62C10.67,602.48,31.58,638,68.62,663.55c34.33,23.67,72.81,33.86,113.92,34.31,54.31.59,108.64.18,163,.38,4.48,0,5.81-1,5.8-5.69Q351.05,593.58,351.21,494.61Zm-103,102.87c-21.16-.25-42.33,0-63.48-.35a101.42,101.42,0,0,1-37.89-8c-27.76-11.64-43-33.21-47.53-62.5-4.26-27.61.66-53.42,17.23-76.37,20.91-29,62.23-42.66,95.88-24.75,17.87,9.51,27.47,25.6,33.44,44.24,5.4,16.84,6.53,34.27,6.88,51.77.17,8.66,0,17.33,0,26,0,15-.09,30,.07,45C252.89,596.08,252.18,597.52,248.22,597.47Z"/><path class="cls-1" d="M1267.05,510q0-91.49.11-183c0-4.48-1.23-5.49-5.55-5.46q-43.74.29-87.49,0c-5,0-6.34,1.08-6.33,6.24q.27,131.74.13,263.48c0,6.35,0,6.38-6.58,6.4-9.17,0-18.33,0-27.5,0q-70.24,0-140.49.06c-4.55,0-6.54-.73-6.48-6.2.32-32.83.12-65.66.17-98.49a202.21,202.21,0,0,0-9-61c-13.4-42.83-39.34-75.38-80.29-94.52-31.51-14.72-65.11-18.61-99.52-14.54-49.06,5.8-88.73,28.82-118,68.28-38.32,51.67-51.06,110-38.92,173,10.76,55.8,43.85,94.36,95.78,117,27.64,12,56.85,16.18,86.67,16.74,20.49.39,41,.27,61.49.13,3.92,0,4.91,1.05,4.24,4.85-.81,4.58-.82,9.29-1.53,13.88-4.63,29.61-20,51-48.31,62.17-31.35,12.31-64.16,12.12-97,10.54-19.29-.92-38.48-3.18-57.66-5.49-2.95-.36-4.79-.33-5.05,3.73q-2.82,44.12-6.24,88.2c-.27,3.5.54,4.54,3.93,5.13,24.69,4.24,49.57,5.76,74.59,6.1,42.1.56,83.39-3.62,123-19.06,40.89-15.93,71.64-42.93,91-82.47,12.59-25.77,18.34-53.38,20.44-81.79C987,699,988.43,698,993,698c89.33.15,178.65.06,268,.24,5.21,0,6.17-1.45,6.16-6.33Q1266.9,601,1267.05,510ZM883.5,597.48c-20.81-.27-41.65.35-62.44-.44-23.11-.88-44.71-6.9-62-23.46-14.34-13.71-21.56-30.93-23.81-50.36-2.68-23.08.69-44.91,12.52-65.41,18-31.23,55.73-47.29,89.33-36.9,20.5,6.34,33.51,20.91,41.47,40.32s9.8,39.58,9.79,60.17q0,13.74,0,27.48c0,14.49-.11,29,.08,43.46C888.46,596.1,887.61,597.53,883.5,597.48Z"/><path class="cls-1" d="M1962,488.22c0-22.46-3.35-44.44-11-65.65-15.68-43.73-44.58-74.73-88.47-90.9-30.08-11.09-61.22-12.39-92.58-7.75-57.85,8.57-102.07,38.69-133.18,87.65-21.58,34-30.59,71.47-28.11,111.86A168.84,168.84,0,0,0,1628.24,593c2.38,4.5,2.42,4.53-2.87,4.66-.5,0-1,0-1.5,0H1457.39c-6.39,0-6.39,0-6.39-6.52q0-209.22.12-418.44c0-4.94-1.35-5.95-6.06-5.91q-43.49.34-87,0c-4.87,0-6.35.94-6.35,6.17q.24,259.71,0,519.43c0,5,1.39,5.92,6.08,5.91q149.48-.21,299-.11,149.73,0,299.46.08c4.23,0,5.93-.62,5.91-5.53C1962,624.53,1962.06,556.37,1962,488.22ZM1857.38,597.47c-22.83-.16-45.67.37-68.48-.21-23.8-.61-43.18-11-59.84-27.95-21-21.35-25-47.47-21.13-75,5.39-38.71,27.68-64.43,65.72-74.33,30.64-8,66.73,2.67,81.74,34.85a67.64,67.64,0,0,1,6.55,28c.21,18.16.06,36.33.06,54.49h.09c0,18.5-.11,37,.09,55.49C1862.22,596.62,1861,597.49,1857.38,597.47Z"/><path class="cls-1" d="M3136.93,474.13c-2.17-25-12.64-46.45-31.61-63.14-26.14-23-57.48-29.81-90.54-23.46-66.23,12.71-110.16,52.29-130.19,116.72-9.48,30.48-6.75,60.88,10.75,88.38,20.25,31.8,50.77,45,87.54,45.63a119.57,119.57,0,0,0,21.92-1.78c32.84-5.67,61.1-20.57,84.66-43.77C3122.42,560.22,3141,521.48,3136.93,474.13Zm-66.63,2.76c-.26,2.2-.87,3.12-3.28,3.17-7.65.16-15.29.56-22.93,1-2.47.13-4-.18-4.14-3.28-.29-4.65-3.83-7-7.81-8-10.31-2.72-20.72-3-31,.39a12.33,12.33,0,0,0-8.08,7.61c-2.51,6.77-.3,11.78,6.51,14.32,8.59,3.2,17.61,4.87,26.51,6.93,8.3,1.92,16.34,4.42,23.66,8.95,10.19,6.31,14.12,15.71,13,27.21C3061,551.91,3052,563.68,3036.83,571a94.44,94.44,0,0,1-22.49,8c-2.86.57-3.82,2.06-4.29,4.6-.91,4.9-2.19,9.74-2.91,14.66-.42,2.84-1.76,3.56-4.33,3.46-3.49-.14-7,0-10.49,0s-7-.13-10.49,0c-3,.15-4.25-.48-3.29-3.91,1.29-4.63,1.78-9.48,3-14.12.87-3.17-.23-4.1-3.13-4.6a47.5,47.5,0,0,1-18.51-7c-10.66-7.08-14.87-17.42-15.12-29.82,0-2.33.7-3.18,3.07-3.3,7.64-.4,15.28-.92,22.89-1.63,2.88-.27,3.91.77,4.08,3.48.58,9.32,6.1,14.4,14.7,16.54,10.61,2.63,21.12,2.35,31.26-2.06,6.88-3,10.35-8.68,11.26-15.9.78-6.18-1.08-9.27-6.79-11.88-9.46-4.31-19.69-6-29.7-8.37a79.53,79.53,0,0,1-17-5.74c-16.11-8-21.77-24.55-12.92-40.29,8.45-15,22.26-23,38.93-25.9,4.28-.75,6.39-2.12,7-6.55.6-4.76,2.08-9.41,2.93-14.15.48-2.72,1.46-4,4.51-3.87,6.82.23,13.66.15,20.49,0,2.85,0,3.9.62,3.1,3.74-1.4,5.47-2.28,11.07-3.59,16.56-.66,2.74-.52,4,2.88,4.5a44.51,44.51,0,0,1,16,5.25A23.69,23.69,0,0,1,3070.3,476.89Z"/></g></g></svg>